<svg width="21" height="20" viewBox="0 0 21 20" fill="none" xmlns="http://www.w3.org/2000/svg">
<path d="M15.9084 14.7692L20.2881 19.0516C20.51 19.2686 20.51 19.6203 20.2881 19.8373C20.0663 20.0542 19.7065 20.0542 19.4846 19.8373L15.1049 15.5549C13.5022 16.9383 11.3968 17.7778 9.09092 17.7778C4.07014 17.7778 0 13.7981 0 8.88889C0 3.97969 4.07014 0 9.09092 0C14.1117 0 18.1818 3.97969 18.1818 8.88889C18.1818 11.1436 17.3233 13.2022 15.9084 14.7692V14.7692ZM9.09092 16.6667C13.4841 16.6667 17.0455 13.1844 17.0455 8.88889C17.0455 4.59334 13.4841 1.11111 9.09092 1.11111C4.69774 1.11111 1.13636 4.59334 1.13636 8.88889C1.13636 13.1844 4.69774 16.6667 9.09092 16.6667Z" fill="#3B7B68"/>
</svg>
