<svg width="8" height="12" viewBox="0 0 8 12" fill="none" xmlns="http://www.w3.org/2000/svg">
<path d="M3.97312 11.3101C1.78239 11.3101 0 9.66686 0 7.64716C0 5.28813 3.53161 0.816017 3.6821 0.626692C3.71559 0.584539 3.7591 0.55024 3.8092 0.5265C3.8593 0.50276 3.91461 0.49023 3.97078 0.489899C4.09751 0.488882 4.19252 0.538554 4.26161 0.622952C4.41356 0.808729 7.98251 5.2017 7.98251 7.647C7.98251 9.66687 6.1838 11.3101 3.97312 11.3101ZM3.97711 1.40518C3.13397 2.52452 0.725299 5.87628 0.725299 7.647C0.725299 9.29297 2.18222 10.632 3.97314 10.632C5.78382 10.632 7.25706 9.29297 7.25706 7.647C7.25724 5.81053 4.83023 2.50894 3.97711 1.40518Z" fill="#5987BA"/>
</svg>
