<svg width="28" height="28" viewBox="0 0 28 28" fill="none" xmlns="http://www.w3.org/2000/svg">
<path d="M26.4444 12.0337V24.1111C26.4444 26.2589 24.7033 28 22.5555 28H17.8889C17.4593 28 17.1111 27.6518 17.1111 27.2222V17.8889C17.1111 17.4593 16.7629 17.1111 16.3333 17.1111H11.6667C11.2371 17.1111 10.8889 17.4593 10.8889 17.8889V27.2222C10.8889 27.6518 10.5407 28 10.1111 28H5.44446C3.29669 28 1.55558 26.2589 1.55558 24.1111V12.0337L1.27224 12.2671C0.940651 12.5401 0.45048 12.4927 0.177409 12.1611C-0.0956613 11.8295 -0.0482256 11.3393 0.28336 11.0663L13.5056 0.177388C13.7928 -0.0591292 14.2072 -0.0591292 14.4944 0.177388L27.7166 11.0663C28.0482 11.3393 28.0957 11.8295 27.8226 12.1611C27.5495 12.4927 27.0593 12.5401 26.7278 12.2671L26.4444 12.0337ZM24.8993 10.7613L14 1.78535L3.10071 10.7613C3.10756 10.8028 3.11113 10.8454 3.11113 10.8889V24.1111C3.11113 25.3998 4.1558 26.4444 5.44446 26.4444H9.33334V17.8889C9.33334 16.6002 10.378 15.5556 11.6667 15.5556H16.3333C17.622 15.5556 18.6667 16.6002 18.6667 17.8889V26.4444H22.5555C23.8442 26.4444 24.8889 25.3998 24.8889 24.1111V10.8889C24.8889 10.8454 24.8924 10.8028 24.8993 10.7613Z" fill="#77817E" fill-opacity="0.77"/>
</svg>
