<svg width="38" height="42" viewBox="0 0 38 42" fill="none" xmlns="http://www.w3.org/2000/svg">
<g filter="url(#filter0_f_2115_234)">
<path d="M18.9367 12.9518C18.9367 12.9518 13.5553 13.4422 10.7374 11.2953C7.91963 9.14836 8.56334 5.04823 8.56334 5.04823C8.56334 5.04823 13.9448 4.55779 16.7626 6.70471C19.5805 8.85163 18.9367 12.9518 18.9367 12.9518V12.9518Z" stroke="#60A993" stroke-width="1.5" stroke-linecap="round" stroke-linejoin="round"/>
<path d="M19.0633 12.9518C19.0633 12.9518 24.4448 13.4422 27.2626 11.2953C30.0805 9.14836 29.4366 5.04823 29.4366 5.04823C29.4366 5.04823 24.0552 4.55779 21.2374 6.70471C18.4195 8.85163 19.0633 12.9518 19.0633 12.9518V12.9518Z" stroke="#60A993" stroke-width="1.5" stroke-linecap="round" stroke-linejoin="round"/>
<path d="M5 19.4C5 18.5163 5.78351 17.8 6.75 17.8H31.25C32.2165 17.8 33 18.5163 33 19.4V22.6C33 23.4837 32.2165 24.2 31.25 24.2H6.75C5.78351 24.2 5 23.4837 5 22.6V19.4Z" stroke="#60A993" stroke-width="1.5" stroke-linecap="round" stroke-linejoin="round"/>
<path d="M6.75 24.2H31.25L27.75 37H10.25L6.75 24.2Z" stroke="#60A993" stroke-width="1.5" stroke-linecap="round" stroke-linejoin="round"/>
</g>
<path d="M18.9367 12.9518C18.9367 12.9518 13.5553 13.4422 10.7374 11.2953C7.91963 9.14836 8.56334 5.04823 8.56334 5.04823C8.56334 5.04823 13.9448 4.55779 16.7626 6.70471C19.5805 8.85163 18.9367 12.9518 18.9367 12.9518V12.9518Z" stroke="#60A993" stroke-width="1.5" stroke-linecap="round" stroke-linejoin="round"/>
<path d="M19.0633 12.9518C19.0633 12.9518 24.4448 13.4422 27.2626 11.2953C30.0805 9.14836 29.4366 5.04823 29.4366 5.04823C29.4366 5.04823 24.0552 4.55779 21.2374 6.70471C18.4195 8.85163 19.0633 12.9518 19.0633 12.9518V12.9518Z" stroke="#60A993" stroke-width="1.5" stroke-linecap="round" stroke-linejoin="round"/>
<path d="M5 19.4C5 18.5163 5.78351 17.8 6.75 17.8H31.25C32.2165 17.8 33 18.5163 33 19.4V22.6C33 23.4837 32.2165 24.2 31.25 24.2H6.75C5.78351 24.2 5 23.4837 5 22.6V19.4Z" stroke="#60A993" stroke-width="1.5" stroke-linecap="round" stroke-linejoin="round"/>
<path d="M6.75 24.2H31.25L27.75 37H10.25L6.75 24.2Z" stroke="#60A993" stroke-width="1.5" stroke-linecap="round" stroke-linejoin="round"/>
<defs>
<filter id="filter0_f_2115_234" x="0.25" y="0.25" width="37.5" height="41.5" filterUnits="userSpaceOnUse" color-interpolation-filters="sRGB">
<feFlood flood-opacity="0" result="BackgroundImageFix"/>
<feBlend mode="normal" in="SourceGraphic" in2="BackgroundImageFix" result="shape"/>
<feGaussianBlur stdDeviation="2" result="effect1_foregroundBlur_2115_234"/>
</filter>
</defs>
</svg>
