<svg width="30" height="31" viewBox="0 0 30 31" fill="none" xmlns="http://www.w3.org/2000/svg">
<path d="M15 17.05C10.2111 17.05 6.3158 13.2262 6.3158 8.52503C6.3158 3.82388 10.2111 3.05176e-05 15 3.05176e-05C19.789 3.05176e-05 23.6842 3.82388 23.6842 8.52503C23.6842 13.2262 19.789 17.05 15 17.05ZM15 1.55003C11.0826 1.55003 7.89474 4.67948 7.89474 8.52503C7.89474 12.3706 11.0826 15.5 15 15.5C18.9174 15.5 22.1053 12.3706 22.1053 8.52503C22.1053 4.67948 18.9174 1.55003 15 1.55003Z" fill="#77817E" fill-opacity="0.77"/>
<path d="M27.6316 31H2.36842C1.06263 31 0 29.9569 0 28.675C0 28.5696 0.0221054 26.0633 1.93421 23.56C3.04737 22.103 4.57105 20.9452 6.46421 20.1206C8.77579 19.1115 11.6479 18.6 15 18.6C18.3521 18.6 21.2242 19.1115 23.5358 20.1206C25.4289 20.9467 26.9526 22.103 28.0658 23.56C29.9779 26.0633 30 28.5696 30 28.675C30 29.9569 28.9374 31 27.6316 31ZM15 20.15C9.49421 20.15 5.43158 21.6272 3.25105 24.4218C1.61684 26.5159 1.58053 28.6564 1.57895 28.6781C1.57895 29.1028 1.93263 29.45 2.36842 29.45H27.6316C28.0674 29.45 28.4211 29.1028 28.4211 28.675C28.4211 28.6564 28.3847 26.5159 26.7489 24.4218C24.5668 21.6272 20.5042 20.15 15 20.15Z" fill="#77817E" fill-opacity="0.77"/>
</svg>
