<svg width="28" height="20" viewBox="0 0 28 20" fill="none" xmlns="http://www.w3.org/2000/svg">
<path d="M0.222849 10.543L9.30332 19.775C9.59843 20.075 10.0782 20.075 10.3733 19.775C10.6684 19.4749 10.6684 18.9872 10.3733 18.6871L2.58529 10.7691L27.2433 10.7691C27.661 10.7691 28 10.4245 28 9.99981C28 9.57514 27.661 9.23047 27.2433 9.23047L2.58529 9.23047L10.3733 1.31248C10.6684 1.01244 10.6684 0.524686 10.3733 0.224645C10.225 0.073856 10.0313 0 9.83755 0C9.64383 0 9.45012 0.0753946 9.3018 0.224645L0.221336 9.45666C-0.0737782 9.7567 -0.0737782 10.2445 0.221336 10.5445L0.222849 10.543Z" fill="#8B8B8B"/>
</svg>
