<svg width="28" height="27" viewBox="0 0 28 27" fill="none" xmlns="http://www.w3.org/2000/svg">
<path d="M7 2.7C7 1.98392 7.295 1.29716 7.8201 0.790812C8.3452 0.284463 9.05739 0 9.8 0H18.2C18.9426 0 19.6548 0.284463 20.1799 0.790812C20.705 1.29716 21 1.98392 21 2.7V5.4H26.6C26.9713 5.4 27.3274 5.54223 27.59 5.79541C27.8525 6.04858 28 6.39196 28 6.75C28 7.10804 27.8525 7.45142 27.59 7.70459C27.3274 7.95777 26.9713 8.1 26.6 8.1H25.1034L23.8896 24.4917C23.8393 25.1729 23.5232 25.8104 23.005 26.2758C22.4867 26.7413 21.8048 27 21.0966 27H6.902C6.1938 27 5.51189 26.7413 4.99364 26.2758C4.47538 25.8104 4.15928 25.1729 4.109 24.4917L2.898 8.1H1.4C1.0287 8.1 0.672601 7.95777 0.41005 7.70459C0.1475 7.45142 0 7.10804 0 6.75C0 6.39196 0.1475 6.04858 0.41005 5.79541C0.672601 5.54223 1.0287 5.4 1.4 5.4H7V2.7ZM9.8 5.4H18.2V2.7H9.8V5.4ZM5.7036 8.1L6.9034 24.3H21.098L22.2978 8.1H5.7036ZM11.2 10.8C11.5713 10.8 11.9274 10.9422 12.1899 11.1954C12.4525 11.4486 12.6 11.792 12.6 12.15V20.25C12.6 20.608 12.4525 20.9514 12.1899 21.2046C11.9274 21.4578 11.5713 21.6 11.2 21.6C10.8287 21.6 10.4726 21.4578 10.2101 21.2046C9.9475 20.9514 9.8 20.608 9.8 20.25V12.15C9.8 11.792 9.9475 11.4486 10.2101 11.1954C10.4726 10.9422 10.8287 10.8 11.2 10.8ZM16.8 10.8C17.1713 10.8 17.5274 10.9422 17.7899 11.1954C18.0525 11.4486 18.2 11.792 18.2 12.15V20.25C18.2 20.608 18.0525 20.9514 17.7899 21.2046C17.5274 21.4578 17.1713 21.6 16.8 21.6C16.4287 21.6 16.0726 21.4578 15.8101 21.2046C15.5475 20.9514 15.4 20.608 15.4 20.25V12.15C15.4 11.792 15.5475 11.4486 15.8101 11.1954C16.0726 10.9422 16.4287 10.8 16.8 10.8Z" fill="#D40000"/>
</svg>
