<svg width="22" height="22" viewBox="0 0 22 22" fill="none" xmlns="http://www.w3.org/2000/svg">
<path fill-rule="evenodd" clip-rule="evenodd" d="M12.212 1.38262C12.212 1.10818 12.0987 0.84498 11.897 0.65092C11.6954 0.456861 11.4219 0.347839 11.1368 0.347839C10.8516 0.347839 10.5781 0.456861 10.3765 0.65092C10.1748 0.84498 10.0615 1.10818 10.0615 1.38262V2.4174C10.0615 2.69185 10.1748 2.95505 10.3765 3.14911C10.5781 3.34317 10.8516 3.45219 11.1368 3.45219C11.4219 3.45219 11.6954 3.34317 11.897 3.14911C12.0987 2.95505 12.212 2.69185 12.212 2.4174V1.38262ZM4.37043 2.7206C4.16764 2.5321 3.89604 2.4278 3.61412 2.43016C3.33221 2.43252 3.06253 2.54134 2.86318 2.7332C2.66382 2.92506 2.55074 3.18459 2.54829 3.45591C2.54584 3.72723 2.65422 3.98862 2.85008 4.18378L3.92529 5.21856C4.12808 5.40706 4.39968 5.51136 4.6816 5.509C4.96352 5.50664 5.23319 5.39781 5.43255 5.20596C5.6319 5.0141 5.74498 4.75456 5.74743 4.48325C5.74988 4.21193 5.6415 3.95054 5.44564 3.75538L4.37043 2.7206ZM19.4234 2.7206C19.2218 2.5266 18.9484 2.41763 18.6632 2.41763C18.3781 2.41763 18.1047 2.5266 17.9031 2.7206L16.8279 3.75538C16.632 3.95054 16.5236 4.21193 16.5261 4.48325C16.5285 4.75456 16.6416 5.0141 16.841 5.20596C17.0403 5.39781 17.31 5.50664 17.5919 5.509C17.8738 5.51136 18.1454 5.40706 18.3482 5.21856L19.4234 4.18378C19.625 3.98973 19.7382 3.72657 19.7382 3.45219C19.7382 3.1778 19.625 2.91465 19.4234 2.7206ZM11.1368 5.52175C9.71093 5.52175 8.3435 6.06686 7.3353 7.03716C6.32709 8.00745 5.76068 9.32346 5.76068 10.6957C5.76068 12.0679 6.32709 13.3839 7.3353 14.3542C8.3435 15.3245 9.71093 15.8696 11.1368 15.8696C12.5626 15.8696 13.93 15.3245 14.9382 14.3542C15.9464 13.3839 16.5128 12.0679 16.5128 10.6957C16.5128 9.32346 15.9464 8.00745 14.9382 7.03716C13.93 6.06686 12.5626 5.52175 11.1368 5.52175ZM1.45983 9.66088C1.17466 9.66088 0.901178 9.76991 0.699536 9.96396C0.497894 10.158 0.384613 10.4212 0.384613 10.6957C0.384613 10.9701 0.497894 11.2333 0.699536 11.4274C0.901178 11.6214 1.17466 11.7304 1.45983 11.7304H2.53504C2.82021 11.7304 3.09369 11.6214 3.29533 11.4274C3.49697 11.2333 3.61025 10.9701 3.61025 10.6957C3.61025 10.4212 3.49697 10.158 3.29533 9.96396C3.09369 9.76991 2.82021 9.66088 2.53504 9.66088H1.45983ZM19.7385 9.66088C19.4533 9.66088 19.1798 9.76991 18.9782 9.96396C18.7765 10.158 18.6632 10.4212 18.6632 10.6957C18.6632 10.9701 18.7765 11.2333 18.9782 11.4274C19.1798 11.6214 19.4533 11.7304 19.7385 11.7304H20.8137C21.0988 11.7304 21.3723 11.6214 21.574 11.4274C21.7756 11.2333 21.8889 10.9701 21.8889 10.6957C21.8889 10.4212 21.7756 10.158 21.574 9.96396C21.3723 9.76991 21.0988 9.66088 20.8137 9.66088H19.7385ZM5.44564 17.636C5.54834 17.5405 5.63025 17.4263 5.6866 17.3001C5.74295 17.1738 5.77261 17.038 5.77385 16.9006C5.77509 16.7632 5.74789 16.627 5.69383 16.4998C5.63976 16.3726 5.55993 16.2571 5.45897 16.1599C5.35802 16.0628 5.23797 15.9859 5.10583 15.9339C4.97369 15.8819 4.8321 15.8557 4.68934 15.8569C4.54657 15.8581 4.40548 15.8866 4.2743 15.9409C4.14312 15.9951 4.02448 16.0739 3.92529 16.1728L2.85008 17.2076C2.74738 17.303 2.66547 17.4172 2.60912 17.5434C2.55277 17.6697 2.52311 17.8055 2.52187 17.9429C2.52063 18.0803 2.54783 18.2165 2.6019 18.3437C2.65596 18.4709 2.7358 18.5864 2.83675 18.6836C2.93771 18.7807 3.05776 18.8576 3.1899 18.9096C3.32204 18.9616 3.46362 18.9878 3.60639 18.9866C3.74915 18.9854 3.89024 18.9569 4.02142 18.9026C4.1526 18.8484 4.27125 18.7696 4.37043 18.6707L5.44564 17.636ZM18.3482 16.1728C18.1454 15.9843 17.8738 15.88 17.5919 15.8823C17.31 15.8847 17.0403 15.9935 16.841 16.1854C16.6416 16.3772 16.5285 16.6368 16.5261 16.9081C16.5236 17.1794 16.632 17.4408 16.8279 17.636L17.9031 18.6707C18.1059 18.8592 18.3775 18.9635 18.6594 18.9612C18.9413 18.9588 19.211 18.85 19.4103 18.6581C19.6097 18.4663 19.7228 18.2067 19.7252 17.9354C19.7277 17.6641 19.6193 17.4027 19.4234 17.2076L18.3482 16.1728ZM12.212 18.9739C12.212 18.6995 12.0987 18.4363 11.897 18.2422C11.6954 18.0482 11.4219 17.9391 11.1368 17.9391C10.8516 17.9391 10.5781 18.0482 10.3765 18.2422C10.1748 18.4363 10.0615 18.6995 10.0615 18.9739V20.0087C10.0615 20.2832 10.1748 20.5464 10.3765 20.7404C10.5781 20.9345 10.8516 21.0435 11.1368 21.0435C11.4219 21.0435 11.6954 20.9345 11.897 20.7404C12.0987 20.5464 12.212 20.2832 12.212 20.0087V18.9739Z" fill="#57BC95"/>
</svg>
