<svg width="22" height="22" viewBox="0 0 22 22" fill="none" xmlns="http://www.w3.org/2000/svg">
<path d="M0.384613 2.33625V21.6522H4.72848V20.2725H17.545V21.6522H21.8889V2.33625C21.8889 1.57914 21.246 0.958699 20.4593 0.956543H1.81823C1.02974 0.956543 0.384613 1.57741 0.384613 2.33625ZM17.5594 18.8928H11.8536V11.3384H18.9867C17.588 13.3739 17.588 13.3739 17.588 15.4435L17.5594 18.8928ZM18.7528 9.92466H11.8536V2.33625H14.7262C14.7598 5.82563 14.978 6.72287 16.1544 7.85509L18.7528 9.92466ZM4.71414 18.8928L4.68547 15.4435C4.68547 13.3739 4.68547 13.3739 3.28679 11.3384H10.4199V18.8928H4.71414ZM3.52065 9.92466L6.11909 7.85509C7.29555 6.72287 7.51373 5.82563 7.54733 2.33625H10.4199V9.92466H3.52065Z" fill="#57BC95"/>
</svg>
